<?xml version="1.0" encoding="UTF-8"?>
<svg xmlns="http://www.w3.org/2000/svg" version="1.1" viewBox="0 0 2416.9 512.7">
  <defs>
    <style>
      .cls-1 {
        fill: #fff;
      }
    </style>
  </defs>
  <!-- Generator: Adobe Illustrator 28.7.1, SVG Export Plug-In . SVG Version: 1.2.0 Build 142)  -->
  <g>
    <g id="Layer_1">
      <path class="cls-1" d="M581,24.4l-104.5,18.3,72.9,82.9,52.4-9.4-20.7-91.8ZM398.3,56.2l-52.4,9.1,73.2,82.6,52.1-9.1-72.9-82.6ZM267.9,78.7l-52.4,9.6,73.2,82.6,52.1-9.1-72.9-83.1ZM137.3,102.1l-26.1,4.4c-13.8,2.4-26,9.6-33.8,19.9-7.8,10.3-10.7,22.9-7.9,35.1l10.4,45.9,130.3-22.7-72.9-82.6ZM79.8,207.4v234.1c0,26,23.9,46.8,53.2,46.8h425.6c29.5,0,53.2-20.8,53.2-46.8v-234.1H79.8Z"/>
      <g>
        <path class="cls-1" d="M905.6,257.6c0,90.4,38,135.6,113.9,135.6s26.6-1.3,38.7-3.8c12.2-2.6,27-6.8,44.5-12.8,14.1,30.7,23.5,62.3,28.2,94.7-12.4,4.7-23.9,8.5-34.6,11.5-10.7,3-20.9,5.2-30.7,6.7-9.8,1.5-19.5,2.6-29.1,3.2-9.6.6-19.5,1-29.8,1-36.3,0-68.1-5.9-95.6-17.6s-50.5-28-69.1-48.9c-18.6-20.9-32.5-45.8-41.9-74.9-9.4-29-14.1-60.6-14.1-94.7s4.9-65.8,14.7-95c9.8-29.2,24-54.5,42.5-75.8,18.6-21.3,41.5-38,68.8-49.9,27.3-11.9,58.2-17.9,92.8-17.9s39.9,1.5,58.2,4.5c18.3,3,38.8,9,61.4,17.9-.9,17.5-4.1,34.4-9.6,50.9-5.5,16.4-11.3,30.8-17.3,43.2-8.5-3-16.3-5.5-23.4-7.7-7-2.1-13.8-3.8-20.2-5.1-6.4-1.3-12.8-2.2-19.2-2.9-6.4-.6-13.2-1-20.5-1-34.5,0-61.3,11.6-80.3,34.9-19,23.3-28.5,57.9-28.5,104Z"/>
        <path class="cls-1" d="M1471.1,490.5c-15.8,0-34.8-1.9-56.9-5.8v-186.8h-113.2v186.8c-22.6,3.8-41.4,5.8-56.3,5.8s-34.8-1.9-56.9-5.8V27.9c11.5-1.7,22-3,31.4-3.8,9.4-.9,17.7-1.3,25-1.3s16.3.4,25.9,1.3c9.6.9,19.9,2.1,31,3.8v169.5h113.2V27.9c11.5-1.7,21.9-3,31-3.8,9.2-.9,17.6-1.3,25.3-1.3s16.3.4,25.9,1.3c9.6.9,19.9,2.1,31,3.8v456.8c-22.6,3.8-41.4,5.8-56.3,5.8Z"/>
        <path class="cls-1" d="M1661.2,490.5c-15.8,0-34.8-1.9-56.9-5.8V27.9c11.5-1.7,22-3,31.4-3.8,9.4-.9,17.7-1.3,25-1.3s16.3.4,25.9,1.3c9.6.9,19.9,2.1,31,3.8v456.8c-22.6,3.8-41.4,5.8-56.3,5.8Z"/>
        <path class="cls-1" d="M1794.2,27.9c11.5-1.7,22-3,31.4-3.8,9.4-.9,17.7-1.3,25-1.3s16.3.4,25.9,1.3c9.6.9,19.9,2.1,31,3.8v358.3h147.8c2.1,10.7,3.5,19.9,4.2,27.8.6,7.9,1,15,1,21.4s-.3,14.8-1,22.7c-.6,7.9-2,17.4-4.2,28.5h-261V27.9Z"/>
        <path class="cls-1" d="M2108.4,27.9c11.5-1.7,22-3,31.4-3.8,9.4-.9,17.7-1.3,25-1.3s16.3.4,25.9,1.3c9.6.9,19.9,2.1,31,3.8v358.3h147.8c2.1,10.7,3.5,19.9,4.2,27.8.6,7.9,1,15,1,21.4s-.3,14.8-1,22.7c-.6,7.9-2,17.4-4.2,28.5h-261V27.9Z"/>
      </g>
    </g>
  </g>
</svg>